<svg xmlns="http://www.w3.org/2000/svg" xmlns:xlink="http://www.w3.org/1999/xlink" width="742.727" zoomAndPan="magnify" viewBox="4.988 288.102 742.727 176.922" height="176.922" preserveAspectRatio="xMidYMid meet" version="1.0"><defs><clipPath id="347ae2e7c3"><path d="M 196 288.996094 L 555 288.996094 L 555 459 L 196 459 Z M 196 288.996094 " clip-rule="nonzero"/></clipPath><clipPath id="f10b3a3178"><path d="M 5 391 L 211 391 L 211 460.746094 L 5 460.746094 Z M 5 391 " clip-rule="nonzero"/></clipPath><clipPath id="aa44307fa7"><path d="M 540 391 L 747 391 L 747 460.746094 L 540 460.746094 Z M 540 391 " clip-rule="nonzero"/></clipPath></defs><g clip-path="url(#347ae2e7c3)"><path fill="#ddac54" d="M 375.222656 290.394531 C 374.824219 291.460938 374.492188 293.851562 374.492188 295.714844 C 374.492188 302.828125 371.5 312.402344 364.851562 326.765625 C 358.667969 340.128906 357.070312 345.578125 357.070312 353.691406 C 357.070312 361.46875 358.203125 365.660156 363.320312 376.960938 C 367.777344 386.867188 369.570312 393.382812 368.507812 395.976562 C 367.578125 398.171875 367.578125 398.171875 365.714844 397.171875 C 364.917969 396.773438 362.988281 396.109375 361.328125 395.644531 C 358.402344 394.914062 358.402344 394.847656 356.9375 390.257812 C 354.945312 384.140625 353.28125 381.015625 349.625 376.496094 C 346.832031 373.039062 335.664062 363.996094 333.136719 363.132812 C 331.140625 362.46875 329.878906 364.394531 330.34375 367.519531 C 332.140625 381.082031 335.265625 388 342.910156 395.578125 L 348.296875 400.898438 L 347.363281 403.554688 C 344.773438 411.136719 351.953125 422.304688 357.804688 419.84375 C 360.261719 418.847656 361.59375 415.855469 360.796875 413.0625 C 359.996094 410.40625 358.734375 409.9375 357.871094 412.132812 C 357.136719 414.195312 356.207031 414.328125 355.210938 412.597656 C 354.28125 410.871094 354.347656 408.34375 355.34375 407.347656 C 356.605469 406.082031 359.53125 406.414062 361.394531 408.144531 C 365.050781 411.535156 366.910156 418.382812 365.847656 424.832031 C 365.316406 427.890625 365.449219 428.953125 366.578125 431.480469 C 368.90625 436.800781 366.644531 440.988281 360.996094 441.585938 C 357.671875 441.984375 354.746094 440.789062 352.617188 438.0625 C 349.425781 434.007812 350.621094 427.957031 354.414062 428.6875 C 358.203125 429.484375 358.734375 429.484375 359 428.820312 C 359.132812 428.421875 358.335938 426.761719 357.269531 425.097656 C 355.144531 421.640625 351.820312 419.777344 347.230469 419.378906 C 341.113281 418.847656 334.863281 424.234375 334.132812 430.75 L 333.734375 433.808594 L 331.539062 432.144531 C 325.691406 427.625 316.847656 425.363281 313.65625 427.425781 C 311.394531 428.886719 311.527344 429.6875 314.320312 430.816406 C 318.441406 432.609375 319.175781 436.867188 315.785156 439.394531 C 314.253906 440.523438 312.925781 440.789062 309.066406 440.789062 C 305.011719 440.722656 303.550781 440.390625 299.894531 438.59375 C 289.253906 433.34375 283.136719 421.90625 284.800781 410.136719 C 286.195312 400.363281 292.578125 392.585938 299.359375 392.585938 C 306.675781 392.585938 313.058594 403.554688 308.335938 408.210938 C 305.078125 411.535156 298.230469 409.9375 294.972656 405.085938 C 293.3125 402.691406 292.710938 402.757812 292.710938 405.285156 C 292.710938 409.871094 297.898438 414.59375 303.882812 415.589844 C 309.46875 416.453125 315.917969 413.195312 318.242188 408.277344 C 324.824219 394.382812 314.1875 377.957031 297.433594 376.230469 C 290.917969 375.5 282.339844 378.292969 277.953125 382.414062 L 276.222656 384.074219 L 270.972656 382.015625 C 261.132812 378.160156 258.140625 377.625 246.171875 377.691406 C 234.335938 377.757812 230.015625 378.492188 220.507812 382.347656 C 210.800781 386.203125 202.554688 392.519531 198.898438 398.835938 C 195.507812 404.820312 196.839844 407.613281 200.628906 402.359375 C 203.023438 399.035156 209.871094 395.378906 217.914062 393.117188 C 222.503906 391.855469 224.894531 391.65625 235.203125 391.589844 C 245.773438 391.589844 247.765625 391.789062 252.488281 393.117188 C 259.136719 395.046875 267.179688 399.234375 266.847656 400.5625 C 266.714844 401.097656 266.449219 404.621094 266.25 408.277344 C 265.851562 416.855469 267.113281 422.96875 271.039062 430.949219 C 277.621094 444.378906 288.257812 453.753906 299.292969 455.75 C 306.34375 457.011719 316.582031 454.617188 323.363281 450.164062 L 325.757812 448.566406 L 328.617188 451.890625 C 332.207031 456.082031 336.195312 457.941406 341.582031 458.007812 C 344.90625 458.074219 346.167969 457.742188 349.492188 455.882812 L 353.414062 453.621094 L 357.003906 455.417969 C 360.195312 457.078125 361.0625 457.210938 366.046875 456.945312 C 369.238281 456.746094 372.363281 456.214844 373.558594 455.550781 C 375.488281 454.550781 375.820312 454.550781 379.078125 455.75 C 384.132812 457.742188 390.515625 457.542969 394.835938 455.351562 L 398.226562 453.621094 L 401.816406 455.617188 C 406.472656 458.207031 408.929688 458.675781 413.320312 457.742188 C 417.640625 456.878906 422.097656 454.019531 424.222656 450.828125 L 425.820312 448.5 L 428.480469 450.164062 C 432.601562 452.824219 436.523438 454.285156 442.375 455.484375 C 446.761719 456.347656 448.425781 456.414062 452.082031 455.75 C 466.242188 453.289062 479.40625 439.257812 484.261719 421.507812 C 485.523438 416.921875 485.65625 415.058594 485.324219 407.613281 L 484.992188 399.101562 L 490.445312 396.574219 C 498.488281 392.851562 503.144531 391.855469 514.179688 391.457031 C 521.761719 391.191406 525.152344 391.324219 529.472656 392.253906 C 540.242188 394.382812 549.417969 398.96875 551.878906 403.289062 C 553.273438 405.75 554.671875 405.75 554.671875 403.355469 C 554.671875 399.5 547.691406 391.523438 540.375 386.933594 C 529.671875 380.285156 519.566406 377.625 504.804688 377.625 C 493.835938 377.625 489.445312 378.492188 480.074219 382.28125 L 476.015625 383.941406 L 472.757812 381.550781 C 463.984375 375.101562 452.347656 374.367188 443.304688 379.6875 C 428.414062 388.398438 427.546875 410.605469 441.910156 415.191406 C 446.296875 416.585938 453.34375 414.792969 456.402344 411.402344 C 458.199219 409.40625 459.726562 405.285156 459.0625 404.15625 C 458.597656 403.289062 458.132812 403.488281 456.601562 405.351562 C 453.742188 408.742188 451.617188 409.871094 448.160156 409.871094 C 444.636719 409.871094 442.640625 408.476562 441.910156 405.484375 C 441.3125 403.15625 442.640625 399.101562 444.703125 396.574219 C 449.421875 391.058594 455.804688 391.257812 461.191406 397.238281 C 472.425781 409.738281 467.507812 431.28125 451.617188 438.726562 C 443.769531 442.386719 434.460938 441.1875 433.796875 436.46875 C 433.464844 434.207031 434.996094 431.8125 437.453125 430.816406 C 440.179688 429.6875 440.246094 428.222656 437.652344 427.160156 C 433.796875 425.5625 425.6875 427.890625 420.035156 432.210938 L 417.707031 433.941406 L 417.707031 431.746094 C 417.640625 426.960938 414.316406 422.171875 409.597656 420.179688 C 404.144531 417.917969 397.628906 419.980469 394.304688 425.03125 C 392.707031 427.492188 392.707031 430.152344 394.304688 429.488281 C 396.765625 428.355469 398.890625 428.355469 399.957031 429.488281 C 402.480469 431.945312 400.488281 437.863281 396.300781 440.457031 C 392.042969 443.050781 386.257812 441.453125 384.464844 437.199219 C 383.734375 435.402344 383.800781 434.671875 384.863281 431.945312 C 385.792969 429.554688 386.058594 427.492188 385.859375 423.105469 C 385.59375 415.789062 386.59375 412.265625 389.785156 409.074219 C 392.773438 406.082031 395.234375 405.75 396.832031 408.144531 C 397.695312 409.539062 397.761719 410.070312 396.964844 411.601562 C 395.765625 414.128906 394.570312 414.328125 393.773438 412.199219 C 393.242188 410.738281 392.910156 410.539062 392.175781 411.136719 C 389.515625 413.328125 390.582031 418.648438 393.90625 419.777344 C 398.359375 421.308594 403.015625 416.921875 404.542969 409.738281 C 405.207031 406.679688 405.140625 405.617188 404.34375 403.488281 L 403.347656 400.898438 L 408.730469 395.578125 C 414.78125 389.527344 417.773438 384.542969 419.636719 377.160156 C 421.628906 369.25 421.964844 364.992188 420.699219 363.730469 C 419.636719 362.734375 419.371094 362.734375 416.976562 364.128906 C 412.1875 366.789062 404.144531 373.703125 401.152344 377.691406 C 397.894531 382.082031 395.367188 387.265625 394.304688 391.855469 C 393.640625 394.914062 393.574219 394.980469 389.851562 396.042969 C 387.789062 396.574219 385.660156 397.238281 385.0625 397.507812 C 384.265625 397.839844 383.734375 397.441406 383.132812 395.976562 C 382.402344 394.183594 382.535156 393.183594 384.066406 388.265625 C 385.0625 385.140625 386.925781 380.21875 388.1875 377.425781 C 394.171875 364.59375 395.765625 357.082031 394.503906 348.636719 C 393.441406 341.988281 392.308594 338.664062 387.125 327.363281 C 380.277344 312.535156 377.21875 302.5625 377.085938 294.652344 C 377.085938 292.722656 376.820312 290.59375 376.484375 289.863281 C 376.019531 288.601562 375.886719 288.667969 375.222656 290.394531 Z M 375.222656 290.394531 " fill-opacity="1" fill-rule="nonzero"/></g><path fill="#ddac54" d="M 342.3125 314 C 342.113281 314.332031 342.046875 316.257812 342.113281 318.253906 C 342.3125 324.304688 339.785156 326.097656 327.085938 329.089844 C 313.125 332.28125 305.476562 337.335938 301.488281 345.910156 C 300.027344 349.035156 299.695312 350.632812 299.695312 355.417969 C 299.695312 360.804688 299.828125 361.402344 302.484375 366.722656 C 304.746094 371.242188 306.808594 373.96875 313.65625 381.28125 C 320.105469 388.265625 322.167969 390.921875 322.765625 393.050781 C 323.695312 396.308594 324.625 396.773438 324.625 394.046875 C 324.625 391.324219 322.632812 385.9375 319.109375 378.890625 C 313.722656 368.117188 312.125 361.335938 314.1875 357.347656 C 315.453125 354.820312 319.507812 352.960938 329.347656 350.367188 C 334.265625 349.035156 339.851562 347.175781 341.847656 346.246094 C 351.421875 341.390625 353.546875 332.28125 347.832031 320.113281 C 345.171875 314.464844 343.308594 312.402344 342.3125 314 Z M 342.3125 314 " fill-opacity="1" fill-rule="nonzero"/><path fill="#ddac54" d="M 406.871094 314.664062 C 405.144531 316.523438 401.953125 324.039062 401.15625 328.226562 C 399.359375 336.671875 403.28125 343.519531 412.058594 347.308594 C 413.121094 347.773438 417.84375 349.167969 422.5625 350.433594 C 436.058594 354.023438 438.320312 355.550781 438.320312 361.335938 C 438.320312 365.660156 436.992188 369.78125 432.402344 379.355469 C 428.214844 388.132812 426.550781 393.183594 427.351562 395.046875 C 427.683594 395.976562 428.082031 395.445312 429.078125 392.917969 C 430.011719 390.523438 432.335938 387.464844 437.722656 381.75 C 441.710938 377.425781 446.167969 372.109375 447.5625 369.980469 C 452.816406 361.867188 453.613281 352.960938 449.691406 345.046875 C 445.699219 337.003906 438.917969 332.679688 424.625 329.089844 C 411.394531 325.765625 409.53125 324.371094 409.796875 318.320312 C 409.996094 313.597656 409 312.335938 406.871094 314.664062 Z M 406.871094 314.664062 " fill-opacity="1" fill-rule="nonzero"/><g clip-path="url(#f10b3a3178)"><path fill="#ddac54" d="M 133.476562 392.449219 C 126.5625 394.578125 123.769531 396.441406 115.527344 404.816406 C 95.046875 425.496094 72.972656 438.59375 47.707031 445.109375 C 36.339844 448.101562 30.820312 448.699219 17.65625 448.699219 C 6.488281 448.632812 5.488281 448.699219 5.488281 449.828125 C 5.488281 451.160156 12.738281 454.152344 21.644531 456.476562 C 29.359375 458.539062 44.183594 458.9375 53.292969 457.476562 C 70.980469 454.484375 89.128906 446.371094 103.226562 435.070312 L 108.144531 431.082031 L 109.210938 434.9375 C 113.996094 452.355469 133.808594 464.523438 150.097656 460.070312 C 162.597656 456.675781 169.113281 444.378906 163.863281 434.003906 C 160.9375 428.355469 151.894531 422.304688 146.109375 422.238281 C 143.914062 422.171875 143.382812 422.4375 143.25 423.566406 C 143.117188 424.699219 143.714844 425.230469 146.308594 426.292969 C 157.078125 430.8125 159.738281 440.855469 151.960938 447.835938 C 145.445312 453.753906 136.933594 452.886719 129.621094 445.640625 C 123.503906 439.523438 120.378906 429.019531 122.441406 421.371094 C 124.234375 414.789062 130.683594 409.339844 138.929688 407.476562 C 155.019531 403.886719 173.835938 411.800781 187.53125 427.820312 C 197.835938 439.921875 202.558594 444.644531 205.949219 446.171875 C 207.742188 447.035156 209.671875 447.769531 210.136719 447.769531 C 211.464844 447.769531 211.066406 446.4375 209.40625 445.707031 C 208.007812 445.042969 204.019531 439.390625 191.453125 420.109375 C 182.410156 406.214844 172.96875 398.5 159.207031 393.714844 C 154.222656 391.984375 152.292969 391.652344 145.445312 391.453125 C 139.195312 391.320312 136.601562 391.519531 133.476562 392.453125 Z M 133.476562 392.449219 " fill-opacity="1" fill-rule="nonzero"/></g><g clip-path="url(#aa44307fa7)"><path fill="#ddac54" d="M 596.15625 392.585938 C 581.332031 396.441406 569.429688 405.617188 559.988281 420.441406 C 548.753906 438.128906 543.765625 445.242188 542.304688 445.90625 C 540.574219 446.707031 540.175781 447.769531 541.570312 447.769531 C 541.972656 447.769531 543.898438 447.039062 545.695312 446.171875 C 549.351562 444.445312 553.9375 439.988281 563.046875 429.21875 C 569.960938 421.042969 576.742188 415.457031 584.125 411.933594 C 592.234375 408.011719 596.957031 406.945312 605.53125 406.945312 C 614.375 407.011719 618.695312 408.410156 623.683594 412.863281 C 628.46875 417.183594 630 421.175781 629.667969 428.421875 C 629.269531 435.667969 627.074219 440.589844 621.886719 445.839844 C 613.179688 454.550781 601.542969 453.488281 596.421875 443.515625 C 593.363281 437.597656 596.15625 431.347656 603.605469 427.359375 C 608.921875 424.566406 609.453125 423.964844 608.390625 422.703125 C 606.261719 420.109375 595.890625 424.433594 590.972656 429.882812 C 587.914062 433.273438 585.917969 437.996094 585.917969 441.785156 C 585.917969 448.5 590.90625 455.480469 598.085938 458.804688 C 601.742188 460.535156 602.9375 460.734375 608.523438 460.734375 C 616.4375 460.734375 621.753906 459.003906 628.402344 454.351562 C 635.519531 449.363281 640.703125 442.183594 642.5 434.738281 C 642.964844 432.941406 643.363281 431.347656 643.496094 431.214844 C 643.628906 431.082031 645.292969 432.34375 647.21875 434.007812 C 656.128906 441.585938 670.957031 449.765625 682.789062 453.621094 C 694.226562 457.410156 698.8125 458.074219 712.242188 458.074219 C 725.476562 458.007812 728.933594 457.476562 740.367188 453.289062 C 745.621094 451.359375 747.214844 450.296875 746.484375 449.097656 C 746.152344 448.5 743.890625 448.433594 737.90625 448.765625 C 708.652344 450.363281 676.273438 438.859375 650.078125 417.449219 C 643.828125 412.398438 639.375 408.210938 633.058594 401.496094 C 628.804688 397.039062 623.484375 393.847656 617.433594 392.320312 C 611.847656 390.855469 602.140625 390.988281 596.15625 392.585938 Z M 596.15625 392.585938 " fill-opacity="1" fill-rule="nonzero"/></g><path fill="#ddac54" d="M 222.039062 399.964844 C 203.289062 404.351562 197.171875 428.222656 210.933594 443.3125 C 219.710938 452.953125 233.140625 453.285156 238.59375 444.046875 C 240.984375 439.988281 241.519531 433.738281 239.855469 429.351562 C 238.328125 425.429688 234.671875 421.304688 231.210938 419.777344 C 228.554688 418.582031 223.964844 418.113281 221.972656 418.914062 C 220.640625 419.445312 220.574219 421.839844 221.839844 421.839844 C 223.300781 421.839844 224.894531 423.765625 224.894531 425.496094 C 224.894531 429.417969 220.109375 430.414062 216.851562 427.222656 C 210.269531 420.574219 221.304688 410.335938 232.675781 412.464844 C 240.917969 414.058594 245.972656 418.246094 253.949219 430.214844 C 259.867188 439.058594 264.988281 444.179688 270.375 446.703125 C 275.824219 449.296875 281.941406 448.765625 276.890625 446.171875 C 274.296875 444.84375 271.570312 440.71875 266.117188 429.816406 C 260.535156 418.648438 256.875 413.195312 252.023438 408.941406 C 243.644531 401.625 231.078125 397.835938 222.039062 399.964844 Z M 222.039062 399.964844 " fill-opacity="1" fill-rule="nonzero"/><path fill="#ddac54" d="M 516.507812 400.296875 C 507.800781 402.425781 499.023438 408.210938 493.769531 415.390625 C 492.042969 417.652344 488.917969 423.238281 486.65625 427.824219 C 481.472656 438.527344 477.480469 444.777344 474.957031 446.109375 C 472.164062 447.503906 472.363281 448.433594 475.421875 448.433594 C 479.011719 448.433594 485.328125 445.109375 489.382812 441.121094 C 491.246094 439.328125 494.96875 434.472656 497.761719 430.285156 C 506.335938 417.453125 513.117188 412.398438 522.027344 412.265625 C 530.007812 412.199219 536.722656 416.988281 536.722656 422.769531 C 536.722656 425.230469 536.390625 425.960938 534.660156 427.425781 C 531.269531 430.285156 526.75 429.085938 526.75 425.363281 C 526.75 423.96875 528.675781 421.839844 529.941406 421.839844 C 531.136719 421.839844 530.871094 419.378906 529.675781 418.914062 C 527.679688 418.117188 523.089844 418.582031 520.367188 419.777344 C 515.113281 422.171875 510.792969 429.21875 510.792969 435.535156 C 510.792969 441.253906 514.183594 446.972656 519.101562 449.632812 C 520.367188 450.296875 522.757812 450.695312 525.484375 450.695312 C 531.136719 450.695312 535.921875 448.433594 540.644531 443.449219 C 554.472656 428.820312 548.890625 405.019531 530.40625 400.230469 C 525.617188 399.035156 521.695312 399.035156 516.507812 400.296875 Z M 516.507812 400.296875 " fill-opacity="1" fill-rule="nonzero"/></svg>